<svg width="20" height="22" viewBox="0 0 20 22" fill="none" xmlns="http://www.w3.org/2000/svg">
<path d="M14.6473 13.619L15.6586 13.6193V16.1661C15.6586 17.2228 15.0281 18.0789 14.1606 18.1964C13.7465 18.2552 13.2381 18.2846 12.6359 18.2846C7.69302 18.2846 6.05762 11.6734 8.17771 7.39258L2.42748 3.74742C1.86138 3.38878 1.1374 3.60164 0.81058 4.22319C0.4836 4.84474 0.677641 5.63963 1.24375 5.99863L3.45813 7.40237C1.38891 14.8182 5.1325 21.9816 12.3535 21.9816C13.8029 21.9816 15.0924 21.8742 16.2218 21.6588C16.5137 21.6041 16.7824 21.5446 17.0382 21.4797C17.3239 21.4072 17.5936 21.3285 17.8613 21.2433C18.6668 20.9876 19.2131 20.0857 19.2131 19.0776V10.6777C19.2131 10.2603 18.9336 9.92193 18.5887 9.92193H11.5345C11.5345 9.92193 11.7134 10.4931 12.0491 11.1864C12.5677 12.2573 13.4604 13.619 14.6473 13.619Z" fill="white"/>
<path d="M5.50341 3.5817C8.12916 0.671223 12.1381 0.377855 15.8213 0.431161C16.1942 0.436601 16.5666 0.44204 16.9378 0.443853C17.0564 0.444216 17.138 0.575488 17.0944 0.696607C16.2885 2.93585 15.5846 3.97805 13.4829 4.1416C11.849 4.1416 10.3163 4.73414 9.19433 5.92139L5.50341 3.5817Z" fill="white"/>
</svg>
